<svg xmlns="http://www.w3.org/2000/svg" viewBox="0 0 1440 420" role="img" aria-labelledby="title desc">
  <title id="title">重構人才定義深色主視覺</title>
  <desc id="desc">以深色中心節點連接多個職能模組，表達混合型人才重新編排設計、產品、工程與行銷流程。</desc>
  <defs>
    <linearGradient id="bg" x1="0" y1="0" x2="1" y2="1">
      <stop offset="0" stop-color="#141512"/>
      <stop offset="0.55" stop-color="#18221f"/>
      <stop offset="1" stop-color="#142031"/>
    </linearGradient>
    <filter id="shadow" x="-20%" y="-30%" width="140%" height="160%">
      <feDropShadow dx="0" dy="18" stdDeviation="24" flood-color="#000000" flood-opacity="0.28"/>
    </filter>
  </defs>
  <rect width="1440" height="420" rx="34" fill="url(#bg)"/>
  <g opacity="0.22" stroke="#f2f1ea" stroke-width="1">
    <path d="M80 0v420M160 0v420M240 0v420M320 0v420M400 0v420M480 0v420M560 0v420M640 0v420M720 0v420M800 0v420M880 0v420M960 0v420M1040 0v420M1120 0v420M1200 0v420M1280 0v420M1360 0v420"/>
    <path d="M0 70h1440M0 140h1440M0 210h1440M0 280h1440M0 350h1440"/>
  </g>
  <circle cx="1190" cy="86" r="112" fill="#378add" opacity="0.17"/>
  <circle cx="175" cy="322" r="136" fill="#38b785" opacity="0.16"/>
  <circle cx="760" cy="78" r="82" fill="#e37a3d" opacity="0.18"/>
  <g filter="url(#shadow)">
    <rect x="176" y="70" width="1088" height="280" rx="30" fill="#20221d" stroke="#3a3c34"/>
    <g stroke="#5b5d54" stroke-width="5" stroke-linecap="round" opacity="0.72">
      <path d="M720 210L420 132"/>
      <path d="M720 210L1020 132"/>
      <path d="M720 210L420 288"/>
      <path d="M720 210L1020 288"/>
      <path d="M720 210L720 104"/>
      <path d="M720 210L720 316"/>
    </g>
    <g opacity="0.85">
      <path d="M420 132C514 90 620 126 720 210S924 330 1020 288" fill="none" stroke="#5aa9f0" stroke-width="4" stroke-linecap="round" opacity="0.34"/>
      <path d="M420 288C540 322 604 274 720 210S916 96 1020 132" fill="none" stroke="#56c999" stroke-width="4" stroke-linecap="round" opacity="0.3"/>
    </g>
    <circle cx="720" cy="210" r="66" fill="#252720" stroke="#3a3c34" stroke-width="3"/>
    <circle cx="720" cy="210" r="38" fill="#5aa9f0" opacity="0.9"/>
    <circle cx="720" cy="210" r="14" fill="#f2f1ea"/>
    <g>
      <rect x="312" y="88" width="216" height="88" rx="24" fill="#1f3040" stroke="#3a3c34"/>
      <circle cx="376" cy="132" r="26" fill="#5aa9f0" opacity="0.9"/>
      <rect x="424" y="112" width="54" height="12" rx="6" fill="#46637a"/>
      <rect x="424" y="140" width="78" height="12" rx="6" fill="#314756"/>
    </g>
    <g>
      <rect x="912" y="88" width="216" height="88" rx="24" fill="#223128" stroke="#3a3c34"/>
      <circle cx="976" cy="132" r="26" fill="#56c999" opacity="0.86"/>
      <path d="M1020 148l28-32 26 18 24-34" fill="none" stroke="#5a977b" stroke-width="7" stroke-linecap="round" stroke-linejoin="round"/>
    </g>
    <g>
      <rect x="312" y="244" width="216" height="88" rx="24" fill="#302720" stroke="#3a3c34"/>
      <circle cx="376" cy="288" r="26" fill="#e98a4d" opacity="0.84"/>
      <rect x="424" y="266" width="74" height="12" rx="6" fill="#7b5642"/>
      <rect x="424" y="294" width="52" height="12" rx="6" fill="#634434"/>
    </g>
    <g>
      <rect x="912" y="244" width="216" height="88" rx="24" fill="#31242b" stroke="#3a3c34"/>
      <circle cx="976" cy="288" r="26" fill="#dd6d9d" opacity="0.82"/>
      <path d="M1026 288h70M1061 253v70" stroke="#86546a" stroke-width="8" stroke-linecap="round"/>
    </g>
    <g opacity="0.82">
      <circle cx="720" cy="104" r="22" fill="#56c999"/>
      <circle cx="720" cy="316" r="22" fill="#e98a4d"/>
      <circle cx="590" cy="210" r="18" fill="#dd6d9d"/>
      <circle cx="850" cy="210" r="18" fill="#5aa9f0"/>
    </g>
  </g>
</svg>
