<svg xmlns="http://www.w3.org/2000/svg" viewBox="0 0 1440 420" role="img" aria-labelledby="title desc">
  <title id="title">AI 投資規模與生產力提升預估深色主視覺</title>
  <desc id="desc">以深色泡泡散點圖表現 AI 投資強度、生產力提升潛力與市場規模的關係。</desc>
  <defs>
    <linearGradient id="bg" x1="0" y1="0" x2="1" y2="1">
      <stop offset="0" stop-color="#141512"/>
      <stop offset="0.55" stop-color="#18221f"/>
      <stop offset="1" stop-color="#142031"/>
    </linearGradient>
    <filter id="shadow" x="-20%" y="-30%" width="140%" height="160%">
      <feDropShadow dx="0" dy="18" stdDeviation="24" flood-color="#000000" flood-opacity="0.28"/>
    </filter>
  </defs>
  <rect width="1440" height="420" rx="34" fill="url(#bg)"/>
  <g opacity="0.22" stroke="#f2f1ea" stroke-width="1">
    <path d="M80 0v420M160 0v420M240 0v420M320 0v420M400 0v420M480 0v420M560 0v420M640 0v420M720 0v420M800 0v420M880 0v420M960 0v420M1040 0v420M1120 0v420M1200 0v420M1280 0v420M1360 0v420"/>
    <path d="M0 70h1440M0 140h1440M0 210h1440M0 280h1440M0 350h1440"/>
  </g>
  <circle cx="1175" cy="98" r="118" fill="#378add" opacity="0.17"/>
  <circle cx="170" cy="314" r="132" fill="#38b785" opacity="0.16"/>
  <circle cx="760" cy="76" r="82" fill="#e37a3d" opacity="0.18"/>
  <g filter="url(#shadow)">
    <rect x="122" y="76" width="828" height="278" rx="28" fill="#20221d" stroke="#3a3c34"/>
    <g transform="translate(184 116)">
      <path d="M0 190H680" stroke="#6d7068" stroke-width="2" opacity="0.72"/>
      <path d="M0 190V0" stroke="#6d7068" stroke-width="2" opacity="0.72"/>
      <g stroke="#f2f1ea" stroke-width="1" opacity="0.14">
        <path d="M136 0v190M272 0v190M408 0v190M544 0v190M680 0v190"/>
        <path d="M0 38h680M0 76h680M0 114h680M0 152h680"/>
      </g>
      <path d="M0 224h150" stroke="#56594f" stroke-width="8" stroke-linecap="round"/>
      <path d="M-36 190V42" stroke="#56594f" stroke-width="8" stroke-linecap="round"/>
      <circle cx="166" cy="224" r="8" fill="#5aa9f0" opacity="0.82"/>
      <circle cx="-36" cy="28" r="8" fill="#56c999" opacity="0.82"/>
      <circle cx="542" cy="48" r="48" fill="#5aa9f0" opacity="0.86"/>
      <circle cx="450" cy="74" r="66" fill="#56c999" opacity="0.72"/>
      <circle cx="306" cy="104" r="44" fill="#e98a4d" opacity="0.78"/>
      <circle cx="596" cy="118" r="78" fill="#7aa7cb" opacity="0.32"/>
      <circle cx="194" cy="135" r="36" fill="#dd6d9d" opacity="0.68"/>
      <circle cx="392" cy="38" r="23" fill="#f3a35b" opacity="0.86"/>
      <path d="M118 166C210 112 272 146 338 104S438 74 516 52S604 61 654 30" fill="none" stroke="#5aa9f0" stroke-width="7" stroke-linecap="round" opacity="0.9"/>
      <path d="M118 166L516 52" stroke="#5aa9f0" stroke-width="2" opacity="0.28"/>
      <circle cx="118" cy="166" r="7" fill="#5aa9f0"/>
      <circle cx="338" cy="104" r="7" fill="#5aa9f0"/>
      <circle cx="516" cy="52" r="7" fill="#5aa9f0"/>
    </g>
  </g>
  <g filter="url(#shadow)">
    <rect x="1005" y="102" width="312" height="222" rx="24" fill="#20221d" stroke="#3a3c34"/>
    <rect x="1040" y="138" width="136" height="12" rx="6" fill="#5b5d54"/>
    <rect x="1040" y="164" width="210" height="10" rx="5" fill="#44473f"/>
    <g transform="translate(1040 178)">
      <circle cx="20" cy="18" r="18" fill="#5aa9f0" opacity="0.9"/>
      <path d="M54 18h126" stroke="#56594f" stroke-width="8" stroke-linecap="round"/>
    </g>
    <g transform="translate(1040 226)">
      <circle cx="20" cy="18" r="26" fill="#56c999" opacity="0.75"/>
      <path d="M64 18h142" stroke="#56594f" stroke-width="8" stroke-linecap="round"/>
    </g>
    <g transform="translate(1040 276)">
      <path d="M0 24C42 6 74 37 116 12" fill="none" stroke="#e98a4d" stroke-width="7" stroke-linecap="round"/>
      <path d="M138 18h96" stroke="#56594f" stroke-width="8" stroke-linecap="round"/>
    </g>
  </g>
</svg>
